<?xml version="1.0" encoding="UTF-8"?>
<!DOCTYPE svg PUBLIC "-//W3C//DTD SVG 1.1//EN" "http://www.w3.org/Graphics/SVG/1.1/DTD/svg11.dtd">
<!-- Creator: CorelDRAW -->
<svg xmlns="http://www.w3.org/2000/svg" xml:space="preserve" width="0.434335in" height="0.570654in" version="1.1" style="shape-rendering:geometricPrecision; text-rendering:geometricPrecision; image-rendering:optimizeQuality; fill-rule:evenodd; clip-rule:evenodd"
viewBox="0 0 3.1 4.08"
 xmlns:xlink="http://www.w3.org/1999/xlink"
 xmlns:xodm="http://www.corel.com/coreldraw/odm/2003">
 <defs>
  <style type="text/css">
   <![CDATA[
    .fil0 {fill:#C2F13C}
   ]]>
  </style>
 </defs>
 <g id="Layer_x0020_1">
  <metadata id="CorelCorpID_0Corel-Layer"/>
  <g id="_2528616502800">
   <g>
    <path class="fil0" d="M0 0.2c0,0.89 0,1.78 0,2.67 -0,0.29 0.12,0.38 0.28,0.51 0.36,0.22 0.72,0.44 1.08,0.66 0.05,0.03 0.1,0.01 0.1,-0.05 -0,-1.03 -0,-2.06 -0,-3.09 -0.02,-0.12 -0.03,-0.24 -0.25,-0.39 -0.27,-0.16 -0.55,-0.32 -0.82,-0.48 -0.08,-0.04 -0.12,-0.03 -0.2,0 -0.04,0.02 -0.08,0.04 -0.12,0.05 -0.06,0.03 -0.07,0.04 -0.07,0.11z"/>
    <path class="fil0" d="M1.67 0.95c-0.03,0.02 -0.05,0.04 -0.05,0.08 0,1 0,1.99 0,3 0,0.05 0.07,0.06 0.11,0.04 0.37,-0.2 0.74,-0.41 1.12,-0.61 0.14,-0.08 0.25,-0.19 0.26,-0.43 -0,-0.34 -0,-0.67 -0.01,-1.01 -0.01,-0.23 -0.08,-0.43 -0.3,-0.57 -0.3,-0.18 -0.6,-0.35 -0.9,-0.53 -0.07,-0.04 -0.1,-0.02 -0.14,-0 -0.02,0.01 -0.06,0.03 -0.08,0.04z"/>
   </g>
  </g>
 </g>
</svg>
